<svg width="195" height="76" viewBox="0 0 195 76" fill="none" xmlns="http://www.w3.org/2000/svg">
<g clip-path="url(#clip0_747_399)">
<path d="M37.2393 75.3387C34.8322 75.3387 32.4251 75.3387 30.018 75.3387C26.8085 75.3149 23.6226 75.2198 20.4367 74.9343C17.6756 74.6964 14.9381 74.2444 12.295 73.3167C7.07956 71.4612 3.61048 67.8453 1.86414 62.5642C1.01457 59.995 0.636983 57.3069 0.377392 54.6188C-0.070992 49.4329 -0.000194525 44.247 -0.000194525 39.0611C-0.000194525 35.9923 -0.000194525 32.9236 -0.000194525 29.8549C0.0234046 26.0487 0.141401 22.2425 0.636983 18.4601C0.990971 15.6531 1.62815 12.9174 2.8789 10.3482C4.86124 6.28035 8.04712 3.59224 12.2242 2.09356C14.6785 1.21338 17.2508 0.737608 19.8467 0.523511C27.0445 -0.0949933 34.2422 -0.0236275 41.4636 0.0477384C43.8707 0.071527 46.2778 0.0477384 48.6849 0.142893C52.508 0.309413 56.331 0.475933 60.0597 1.40369C62.7736 2.06977 65.2987 3.14026 67.4934 4.9244C70.1366 7.06538 71.8357 9.82486 72.8505 13.0601C73.6764 15.6531 74.0776 18.3412 74.29 21.0531C74.8564 28.5703 74.6676 36.1113 74.644 43.6285C74.644 46.1501 74.644 48.6717 74.5024 51.1933C74.3136 54.5237 74.054 57.8303 73.2044 61.0893C71.4345 67.9166 67.1631 72.1748 60.4137 73.9352C58.219 74.5061 55.977 74.7916 53.7115 74.9819C48.2601 75.4339 42.7615 75.3625 37.2393 75.3387Z" fill="#006666"/>
<path d="M97.2522 21.6239V26.3579H95.1755V23.5984H86.0426V26.3579H83.9187V21.6239H85.2875C85.5706 20.5535 85.6886 18.8645 85.6886 16.3667V10.5385H95.7419V21.6002H97.2522V21.6239ZM93.5944 21.6477V12.5129H87.789V16.3667C87.789 18.3649 87.6238 20.2918 87.3406 21.6715H93.5944V21.6477Z" fill="#006666"/>
<path d="M103.813 22.0284C105.323 22.0284 106.267 21.4337 106.857 20.6962L108.249 21.9333C107.4 22.9562 105.96 23.7888 103.813 23.7888C100.438 23.7888 98.5974 21.5288 98.5974 18.4601C98.5974 15.2962 100.651 13.1315 103.648 13.1315C106.645 13.1315 108.603 15.2249 108.603 18.4601C108.603 18.698 108.603 18.8645 108.533 19.1024H100.651C100.863 20.8866 101.996 22.0284 103.813 22.0284ZM100.674 17.5324H106.503C106.22 15.8434 105.182 14.8442 103.648 14.8442C102.019 14.8442 100.981 15.8672 100.674 17.5324Z" fill="#006666"/>
<path d="M120.851 18.4601C120.851 21.624 119.011 23.7888 116.391 23.7888C114.999 23.7888 113.795 23.2416 113.017 22.2425V27.0478H110.963V13.298H112.733L112.875 14.9156C113.701 13.7738 114.928 13.1315 116.391 13.1315C119.081 13.1315 120.851 15.2249 120.851 18.4601ZM118.775 18.4601C118.775 16.2954 117.642 14.8918 115.848 14.8918C114.055 14.8918 112.875 16.2954 112.875 18.4601C112.875 20.6249 114.031 22.0284 115.848 22.0284C117.666 22.0284 118.775 20.6249 118.775 18.4601Z" fill="#006666"/>
<path d="M137.088 21.7905V23.6222H136.167C134.94 23.6222 134.185 22.9799 134.185 21.7429V20.4108C134.185 19.7685 133.807 19.3403 133.123 19.3403H130.81V23.646H128.757V19.3165H126.397C125.713 19.3165 125.335 19.7209 125.335 20.387V21.7192C125.335 22.9562 124.627 23.5985 123.353 23.5985H122.456V21.7667H122.834C123.141 21.7667 123.353 21.5526 123.353 21.2434V20.1729C123.353 18.7932 123.943 17.9605 125.052 17.7227L122.551 13.2504H124.745L126.964 17.4848H128.734V9.84863H130.787V17.5086H132.557L134.775 13.2742H136.922L134.421 17.7465C135.554 17.9843 136.12 18.8169 136.12 20.1967V21.2672C136.12 21.5764 136.332 21.7905 136.639 21.7905H137.088Z" fill="#006666"/>
<path d="M148.014 21.8143V23.5985C147.92 23.6222 147.636 23.6698 147.306 23.6698C146.055 23.6698 145.465 23.2178 145.324 22.0284C144.616 23.0989 143.247 23.7888 141.737 23.7888C139.731 23.7888 138.386 22.5518 138.386 20.7676C138.386 18.2222 140.816 17.6751 142.775 17.3658C144.309 17.1517 145.064 17.0328 145.064 16.224C145.064 15.3914 144.215 14.8442 142.917 14.8442C141.76 14.8442 140.675 15.3676 139.849 16.224L138.598 14.8918C139.802 13.75 141.265 13.1315 143.035 13.1315C145.489 13.1315 146.999 14.3923 146.999 16.5332V21.172C146.999 21.624 147.212 21.8143 147.636 21.8143H148.014ZM144.993 19.6971V18.365C144.616 18.6028 144.002 18.698 143.011 18.8883C141.713 19.1024 140.392 19.2927 140.392 20.6487C140.392 21.6002 141.005 22.1236 142.067 22.1236C143.648 22.0998 144.993 21.0055 144.993 19.6971Z" fill="#006666"/>
<path d="M158.775 20.7914C158.775 22.6469 157.454 23.6222 155.235 23.6222H150.28V13.298H154.858C157.1 13.298 158.516 14.1306 158.516 15.9861C158.516 17.1279 157.973 17.913 157.053 18.3174C158.162 18.7218 158.775 19.5544 158.775 20.7914ZM152.262 17.5561H154.858C156.014 17.5561 156.486 17.1755 156.486 16.224C156.486 15.3914 155.896 14.9632 154.952 14.9632H152.262V17.5561ZM156.746 20.5535C156.746 19.6495 156.061 19.1024 154.905 19.1024H152.286V21.957H155.047C156.132 21.957 156.746 21.4337 156.746 20.5535Z" fill="#006666"/>
<path d="M170.386 13.298V23.6222H168.333V19.2689H163.354V23.5984H161.3V13.298H163.354V17.4134H168.333V13.298H170.386Z" fill="#006666"/>
<path d="M182.705 13.298V23.6222H180.699V16.105L175.72 23.5984H173.596V13.298H175.602V20.72L180.581 13.298H182.705V13.298Z" fill="#006666"/>
<path d="M195 13.298V23.6222H192.994V16.105L188.015 23.5984H185.891V13.298H187.897V20.72L192.876 13.298H195V13.298ZM187.33 9.89618L188.935 9.61072C189.029 10.4671 189.572 10.9429 190.445 10.9429C191.319 10.9429 191.838 10.4671 191.956 9.61072L193.56 9.89618C193.395 11.4424 192.239 12.3464 190.445 12.3464C188.652 12.3464 187.495 11.4424 187.33 9.89618Z" fill="#006666"/>
<path d="M93.2168 41.7015H87.0102L85.8539 44.7227H83.6119L88.8274 31.6627H91.4469L96.6623 44.7227H94.3968L93.2168 41.7015ZM92.4852 39.7746L90.1253 33.661L87.7654 39.7746H92.4852Z" fill="#006666"/>
<path d="M105.89 36.3015H100.58V44.7227H98.5266V34.3984H105.89V36.3015Z" fill="#006666"/>
<path d="M117.713 39.5844C117.713 42.7483 115.872 44.913 113.253 44.913C111.86 44.913 110.657 44.3659 109.878 43.3668V48.1721H107.825V34.4223H109.595L109.736 36.0399C110.562 34.898 111.789 34.2557 113.253 34.2557C115.943 34.2557 117.713 36.3491 117.713 39.5844ZM115.636 39.5844C115.636 37.4196 114.503 36.0161 112.71 36.0161C110.916 36.0161 109.736 37.4196 109.736 39.5844C109.736 41.7491 110.893 43.1527 112.71 43.1527C114.527 43.1527 115.636 41.7491 115.636 39.5844Z" fill="#006666"/>
<path d="M128.663 42.9386V44.7227C128.568 44.7465 128.285 44.7941 127.955 44.7941C126.704 44.7941 126.114 44.3421 125.972 43.1527C125.264 44.2232 123.896 44.913 122.385 44.913C120.379 44.913 119.034 43.676 119.034 41.8919C119.034 39.3465 121.465 38.7994 123.424 38.4901C124.958 38.276 125.713 38.1571 125.713 37.3483C125.713 36.5157 124.863 35.9685 123.565 35.9685C122.409 35.9685 121.323 36.4919 120.497 37.3483L119.247 36.0161C120.45 34.8742 121.913 34.2557 123.683 34.2557C126.138 34.2557 127.648 35.5165 127.648 37.6575V42.2963C127.648 42.7483 127.86 42.9386 128.285 42.9386H128.663ZM125.666 40.8214V39.4892C125.288 39.7271 124.675 39.8223 123.683 40.0126C122.385 40.2267 121.064 40.417 121.064 41.7729C121.064 42.7245 121.677 43.2478 122.739 43.2478C124.297 43.224 125.666 42.1298 125.666 40.8214Z" fill="#006666"/>
<path d="M140.84 39.5844C140.84 42.7483 138.999 44.913 136.38 44.913C134.987 44.913 133.784 44.3659 133.005 43.3668V48.1721H130.952V34.4223H132.722L132.863 36.0399C133.689 34.898 134.917 34.2557 136.38 34.2557C139.07 34.2557 140.84 36.3491 140.84 39.5844ZM138.763 39.5844C138.763 37.4196 137.63 36.0161 135.837 36.0161C134.02 36.0161 132.863 37.4196 132.863 39.5844C132.863 41.7491 134.02 43.1527 135.837 43.1527C137.63 43.1527 138.763 41.7491 138.763 39.5844Z" fill="#006666"/>
<path d="M152.38 34.4222V44.7227H150.327V40.3932H145.347V44.7227H143.294V34.3984H145.347V38.5377H150.327V34.4222H152.38Z" fill="#006666"/>
<path d="M164.675 34.4222V44.7227H162.669V37.2293L157.69 44.7227H155.566V34.3984H157.572V41.8205L162.551 34.3984H164.675V34.4222Z" fill="#006666"/>
<path d="M176.994 34.4222V44.7227H174.988V37.2293L170.009 44.7227H167.885V34.3984H169.891V41.8205L174.87 34.3984H176.994V34.4222ZM169.324 31.0204L170.929 30.735C171.023 31.5914 171.566 32.0671 172.439 32.0671C173.312 32.0671 173.832 31.5914 173.95 30.735L175.554 31.0204C175.389 32.5667 174.233 33.4707 172.439 33.4707C170.646 33.4707 169.489 32.5667 169.324 31.0204Z" fill="#006666"/>
<path d="M95.3407 56.8073C95.3407 59.3289 93.5707 60.8752 90.7388 60.8752H87.4586V65.8708H85.311V52.8108H90.7388C93.5707 52.787 95.3407 54.3333 95.3407 56.8073ZM93.1696 56.8549C93.1696 55.4038 92.2492 54.6901 90.4793 54.6901H87.4822V59.0196H90.4793C92.2492 59.0196 93.1696 58.2584 93.1696 56.8549Z" fill="#006666"/>
<path d="M101.712 64.2769C103.223 64.2769 104.167 63.6822 104.757 62.9448L106.149 64.1818C105.3 65.2047 103.86 66.0373 101.712 66.0373C98.3378 66.0373 96.4971 63.7774 96.4971 60.7087C96.4971 57.5448 98.5502 55.38 101.547 55.38C104.544 55.38 106.503 57.4734 106.503 60.7087C106.503 60.9465 106.503 61.1131 106.432 61.3509H98.5502C98.7862 63.1351 99.919 64.2769 101.712 64.2769ZM98.5738 59.7809H104.403C104.12 58.0919 103.081 57.0928 101.547 57.0928C99.9425 57.0928 98.8806 58.1157 98.5738 59.7809Z" fill="#006666"/>
<path d="M115.99 62.3501L117.854 62.9923C117.241 64.9192 115.471 66.0135 113.252 66.0135C110.208 66.0135 108.131 63.8487 108.131 60.6849C108.131 57.521 110.208 55.3562 113.252 55.3562C115.471 55.3562 117.241 56.4505 117.854 58.3774L115.99 59.0196C115.518 57.8064 114.55 57.0928 113.252 57.0928C111.624 57.0928 110.515 58.1157 110.208 59.7333H114.55V61.3747H110.185C110.421 63.1351 111.553 64.2294 113.252 64.2294C114.55 64.2769 115.494 63.5633 115.99 62.3501Z" fill="#006666"/>
<path d="M119.082 60.7087C119.082 57.5448 121.158 55.38 124.203 55.38C126.421 55.38 128.191 56.5219 128.781 58.4725L126.846 59.091C126.397 57.8778 125.477 57.1404 124.226 57.1404C122.362 57.1404 121.182 58.5439 121.182 60.7087C121.182 62.8734 122.338 64.2769 124.226 64.2769C125.453 64.2769 126.421 63.5157 126.846 62.3263L128.781 62.9448C128.191 64.8955 126.397 66.0373 124.203 66.0373C121.158 66.0373 119.082 63.8725 119.082 60.7087Z" fill="#006666"/>
<path d="M138.905 57.3544H135.223V65.847H133.17V57.3544H129.489V55.5227H138.905V57.3544V57.3544Z" fill="#006666"/>
<path d="M150.728 60.7087C150.728 63.8725 148.887 66.0373 146.268 66.0373C144.875 66.0373 143.672 65.4902 142.893 64.491V69.2963H140.84V55.5465H142.61L142.752 57.1642C143.577 56.0223 144.805 55.38 146.268 55.38C148.958 55.38 150.728 57.4734 150.728 60.7087ZM148.651 60.7087C148.651 58.5439 147.519 57.1404 145.725 57.1404C143.931 57.1404 142.752 58.5439 142.752 60.7087C142.752 62.8734 143.908 64.2769 145.725 64.2769C147.542 64.2769 148.651 62.8734 148.651 60.7087Z" fill="#006666"/>
<path d="M9.27449 45.4363C9.20369 45.3649 9.18009 45.246 9.18009 45.1508C9.15649 45.0795 9.15649 45.0081 9.15649 44.9367C9.13289 44.8654 9.13289 44.794 9.13289 44.6988C9.10929 43.9376 8.7789 43.3429 8.18892 42.9147C7.78774 42.6054 7.38655 42.32 6.96177 42.0345C6.89097 41.9869 6.82017 41.8918 6.82017 41.7966C6.79657 41.3922 6.77297 40.9878 6.77297 40.5834C6.77297 40.5358 6.77297 40.4645 6.86737 40.4407C7.29215 41.4874 8.35412 41.8204 9.08569 42.653C9.08569 42.5103 9.10929 42.4151 9.10929 42.3438C9.10929 41.9394 9.10929 41.535 9.10929 41.1068C9.08569 40.6786 8.9677 40.2979 8.70811 39.9887C8.25972 39.4178 7.62254 39.1085 7.07976 38.6803C6.93817 38.5614 6.72577 38.4662 6.70217 38.2283C6.67858 37.7526 6.72577 37.2768 6.63138 36.801C6.63138 36.7534 6.60778 36.7059 6.67858 36.6583C6.72577 36.7297 6.79657 36.801 6.82017 36.8962C7.03256 37.4433 7.41015 37.8477 7.85853 38.2045C8.18892 38.4662 8.54291 38.6803 8.8497 38.9658C8.9205 39.0371 8.9677 39.1561 9.10929 39.1561C9.10929 38.7041 9.10929 38.2759 9.10929 37.8239C9.10929 37.253 8.9205 36.7772 8.54291 36.3728C8.11813 35.9208 7.57534 35.6354 7.10336 35.2785C6.79657 35.0407 6.53698 34.8266 6.60778 34.3508C6.65498 34.0891 6.58418 33.8274 6.60778 33.5658C6.60778 33.423 6.58418 33.2803 6.65498 33.1376C6.72577 33.1376 6.74937 33.1851 6.74937 33.2327C6.91457 33.7799 7.22136 34.2318 7.64614 34.5649C8.02373 34.8741 8.40132 35.1596 8.7789 35.4451C8.8969 35.5402 8.9677 35.6354 9.06209 35.7305C9.13289 35.6592 9.10929 35.6116 9.10929 35.5402C9.10929 35.112 9.10929 34.6838 9.10929 34.2794C9.08569 33.875 8.9677 33.4706 8.7317 33.1614C8.30692 32.6142 7.74054 32.3288 7.22136 31.9244C6.89097 31.6865 6.53698 31.4724 6.56058 30.9252C6.58418 30.4732 6.56058 29.9975 6.56058 29.5455C6.56058 29.4979 6.56058 29.4265 6.63138 29.4028C6.63138 29.4265 6.65498 29.4265 6.65498 29.4503C6.82017 30.2116 7.19776 30.7825 7.76414 31.2345C8.11813 31.5199 8.47211 31.7816 8.8261 32.0433C8.9205 32.1147 8.9677 32.2574 9.10929 32.3288C9.10929 32.2574 9.13289 32.186 9.13289 32.1385C9.13289 31.7816 9.13289 31.4248 9.13289 31.0442C9.15649 30.2354 8.8025 29.6644 8.21252 29.2125C7.76414 28.8556 7.24496 28.5702 6.82017 28.1895C6.67858 28.0468 6.53698 27.9279 6.53698 27.69C6.51338 27.0477 6.53698 26.4292 6.51338 25.7869C6.46618 24.7164 6.46618 23.6459 6.44258 22.5754C6.44258 22.4327 6.44258 22.3138 6.44258 22.171H6.41899C6.41899 22.1948 6.41899 22.2424 6.41899 22.2662C6.41899 23.3367 6.39539 24.4071 6.39539 25.5014C6.39539 28.4988 6.39539 31.4962 6.39539 34.4935C6.39539 35.9922 6.41899 37.5147 6.41899 39.0134C6.41899 39.8697 6.51338 40.7261 6.46618 41.6063C6.44258 42.4389 6.56058 43.2477 6.93817 43.9852C7.24496 44.5799 7.71694 45.0319 8.25972 45.3411C8.8969 45.698 9.06209 46.2451 9.06209 46.9588C9.06209 49.3852 9.06209 51.7878 9.06209 54.2143C9.06209 54.2856 9.06209 54.357 9.13289 54.4046H9.51048C9.51048 54.357 9.53408 54.3094 9.53408 54.2619C9.53408 51.9306 9.53408 49.5993 9.53408 47.2918C9.53408 47.0777 9.53408 46.8874 9.55768 46.6733C9.55768 46.6257 9.55768 46.6019 9.58127 46.5543C9.46328 46.2689 9.39248 45.9596 9.34528 45.6266C9.29808 45.5076 9.27449 45.4839 9.27449 45.4363Z" fill="white"/>
<path d="M9.2981 29.4979C9.1801 29.2125 9.10931 28.9746 9.01491 28.7843C8.84972 28.4512 8.66092 28.1182 8.51933 27.7851C8.25974 27.1429 8.37773 26.5243 8.75532 25.9772C9.08571 25.4777 9.2509 24.9067 9.2509 24.2644C9.2509 22.9085 9.2745 21.5763 9.2745 20.2204C9.2745 20.1728 9.2745 20.1252 9.3217 20.0776C9.3217 20.149 9.3453 20.2442 9.3453 20.3155C9.3453 21.2909 9.3689 22.29 9.3453 23.2653C9.3217 24.3596 9.3925 25.3825 10.0061 26.334C10.3365 26.8574 10.2657 27.4997 9.93528 28.0706C9.67569 28.4988 9.46329 28.927 9.2981 29.4979Z" fill="white"/>
<path d="M12.3188 25.43C12.3188 24.3595 12.3188 23.289 12.2952 22.1948C12.2952 22.171 12.2952 22.1234 12.2952 22.0996H12.2716C12.2716 22.2423 12.2716 22.3613 12.2716 22.504C12.248 23.5745 12.2716 24.645 12.2008 25.7155C12.1772 26.3578 12.2008 26.9763 12.1772 27.6186C12.1772 27.8565 12.0356 27.9992 11.894 28.1181C11.4692 28.5225 10.95 28.7842 10.5016 29.141C9.93526 29.593 9.55768 30.1639 9.58128 30.9728C9.58128 31.3296 9.58128 31.6864 9.58128 32.067C9.58128 32.1146 9.60488 32.186 9.60488 32.2573C9.74647 32.2098 9.79367 32.0432 9.88807 31.9719C10.2421 31.7102 10.596 31.4485 10.95 31.1631C11.5164 30.7111 11.9176 30.1164 12.0592 29.3789C12.0592 29.3551 12.0828 29.3551 12.0828 29.3313C12.1536 29.3551 12.1536 29.4265 12.1536 29.4741C12.1536 29.9261 12.13 30.4018 12.1536 30.8538C12.1772 31.3772 11.8232 31.5913 11.4928 31.8529C10.9736 32.2573 10.3836 32.5428 9.98246 33.0899C9.72287 33.423 9.60488 33.8036 9.60488 34.208C9.58128 34.6362 9.60488 35.0644 9.60488 35.4688C9.60488 35.5164 9.58128 35.5878 9.65207 35.6591C9.74647 35.564 9.84087 35.445 9.93526 35.3737C10.3129 35.0644 10.6904 34.8027 11.068 34.4935C11.4928 34.1366 11.776 33.7085 11.9648 33.1613C11.9884 33.1137 11.9884 33.0899 12.0592 33.0662C12.13 33.1851 12.1064 33.3516 12.1064 33.4944C12.1064 33.756 12.0592 34.0177 12.1064 34.2794C12.1772 34.7552 11.9176 34.993 11.6108 35.2071C11.1388 35.564 10.596 35.8494 10.1713 36.3014C9.79367 36.7058 9.60488 37.1816 9.60488 37.7525C9.60488 38.1807 9.60488 38.6327 9.60488 39.0847C9.74647 39.0847 9.79367 38.9657 9.86447 38.8944C10.1713 38.5851 10.5252 38.3948 10.8556 38.1331C11.304 37.7763 11.6816 37.3957 11.894 36.8248C11.9176 36.7534 11.9884 36.682 12.0356 36.5869C12.1064 36.6345 12.0828 36.682 12.0828 36.7296C12.012 37.2054 12.0592 37.6811 12.012 38.1569C11.9884 38.4186 11.7996 38.49 11.6344 38.6089C11.0916 39.0371 10.4544 39.3464 10.0061 39.9173C9.74647 40.2503 9.60488 40.6309 9.60488 41.0353C9.60488 41.4398 9.60488 41.8442 9.60488 42.2724C9.60488 42.3437 9.60488 42.4389 9.62847 42.5816C10.3364 41.749 11.3984 41.4397 11.8468 40.3693C11.9648 40.3931 11.9412 40.4644 11.9412 40.512C11.9176 40.9164 11.9176 41.3208 11.894 41.7252C11.894 41.8442 11.8468 41.9155 11.7524 41.9631C11.3512 42.2486 10.95 42.5578 10.5252 42.8433C9.93526 43.2715 9.60487 43.8662 9.58128 44.6274C9.58128 44.8415 9.53408 45.0318 9.48688 45.2221C9.48688 45.3887 9.39248 45.5552 9.20369 45.5552C9.20369 45.5552 9.20369 45.5552 9.18009 45.5552C9.15649 45.6979 9.10929 45.8644 9.08569 46.0072C9.13289 46.1737 9.15649 46.3402 9.18009 46.5067C9.20369 46.7208 9.20369 46.9111 9.20369 47.1252C9.20369 49.4565 9.20369 51.7878 9.20369 54.0953C9.20369 54.1429 9.22729 54.1904 9.22729 54.238H9.60488C9.67567 54.1904 9.67567 54.1191 9.67567 54.0477C9.67567 51.6213 9.67567 49.2186 9.67567 46.7922C9.67567 46.1023 9.86447 45.5314 10.478 45.1746C11.0208 44.8653 11.4928 44.4133 11.7996 43.8186C12.1772 43.0812 12.2952 42.2724 12.2716 41.4397C12.248 40.5834 12.3424 39.727 12.3188 38.8468C12.2952 37.3481 12.3424 35.8256 12.3424 34.327C12.3188 31.4247 12.3188 28.4274 12.3188 25.43Z" fill="white"/>
<path d="M33.44 45.246V51.6689H30.6317V47.9579H18.2894V51.6689H15.4103V45.246H17.251C17.6286 43.7949 17.7938 41.535 17.7938 38.1332V30.283H31.3869V45.246H33.44ZM28.5078 45.2936V32.9235H20.6729V38.1332C20.6729 40.8213 20.4369 43.4381 20.0829 45.2936H28.5078Z" fill="white"/>
<path d="M47.6468 43.8425H39.2691L37.7115 47.9341H34.6672L41.7234 30.283H45.2633L52.3194 47.9341H49.2279L47.6468 43.8425ZM46.632 41.2495L43.4461 32.9711L40.2602 41.2495H46.632V41.2495Z" fill="white"/>
<path d="M68.7916 35.7067C68.7916 39.1085 66.3845 41.1781 62.5614 41.1781H58.1247V47.9103H55.222V30.2592H62.5614C66.4081 30.2829 68.7916 32.3763 68.7916 35.7067ZM65.8417 35.7543C65.8417 33.8037 64.5909 32.8283 62.2074 32.8283H58.1483V38.6803H62.2074C64.5909 38.6803 65.8417 37.6574 65.8417 35.7543Z" fill="white"/>
</g>
<defs>
<clipPath id="clip0_747_399">
<rect width="195" height="75.3623" fill="white"/>
</clipPath>
</defs>
</svg>